<?xml version="1.0" encoding="utf-8"?>
<!-- Generator: Adobe Illustrator 28.1.0, SVG Export Plug-In . SVG Version: 6.00 Build 0)  -->
<svg version="1.1" id="a" xmlns="http://www.w3.org/2000/svg" xmlns:xlink="http://www.w3.org/1999/xlink" x="0px" y="0px"
	 viewBox="0 0 872.8 969.1" style="enable-background:new 0 0 872.8 969.1;" xml:space="preserve">
<style type="text/css">
	.st0{fill:#376C77;}
	.st1{fill:#010101;}
</style>
<path class="st0" d="M166.2,581.1c0.3-1.8,0.6-3.4,0.6-5.2V281.8c0-3.6,1.5-6.3,4.6-7.9c12.2-6.9,24.4-13.9,36.5-20.7
	c12.1-6.8,24.2-13.6,36.3-20.4c13.5-7.7,27-15.4,40.5-23c10.5-5.9,21.2-11.7,31.7-17.7c15.1-8.6,30.1-17.1,45.2-25.7
	c10.4-5.9,20.9-11.7,31.3-17.6c9.6-5.4,19.2-10.9,28.8-16.3c3.8-2.1,7.7-4.2,11.5-6.4c11.7,6.6,23,13.2,34.5,19.6
	c10,5.6,20,11.3,30.1,16.9c12.3,7,24.5,13.9,36.9,20.8c8.1,4.6,16.3,9.2,24.5,13.8c12.2,6.9,24.4,13.9,36.5,20.7
	c10.5,5.9,21.2,11.7,31.7,17.7c9.6,5.4,19.2,10.9,28.8,16.4c8,4.6,16.2,9,24.2,13.6c10.5,5.9,21,11.9,31.6,17.9
	c10.4,5.9,20.9,11.7,31.3,17.6c4.4,2.5,8.9,5,13.4,7.8c-19.2,11.4-38.4,22.4-57.6,33.6c-1.9,1.1-3.3,1.1-5.1,0
	c-49.3-28.5-98.5-56.9-147.8-85.4c-41-23.7-81.8-47.3-122.8-71c-1-0.5-2-1-3.4-1.7v64c91.5,52.7,183.1,105.6,275,158.7
	c-20.7,11.9-41,23.6-61.2,35.2C542.1,389.4,450.3,336.3,358,283.1c-0.1,1.5-0.2,2.4-0.2,3.4c-0.1,18.5-0.2,37.1-0.2,55.6
	c0,6.3-1.1,4.5,4.4,7.6c79.6,46,159.2,92,238.8,138c10.5,6.1,21,12.1,31.7,18.3c-0.8,0.6-1.4,1.1-2.1,1.6
	c-18.8,10.9-37.7,21.7-56.5,32.6c-1.9,1.1-3.3,1-5.1-0.1c-47.6-27.5-95.2-55.1-142.8-82.5c-42.7-24.6-85.4-49.3-128.1-74
	c-0.9-0.5-1.8-0.9-3-1.4v64c91.5,52.9,183,105.7,275,158.8c-21.3,12.3-42,24.3-62.8,36.2C415,587.9,323.2,534.8,231,481.5
	c-0.1,2-0.3,3.5-0.3,5c-0.1,18.5-0.1,37.1-0.3,55.6c0,2.5,0.7,3.8,2.8,5c42.5,24.5,85,49,127.5,73.5c47.2,27.3,94.4,54.6,141.6,81.8
	c1,0.5,1.9,1.2,3.2,2c-21,12.1-41.6,24-62.1,35.8c-1.2-0.7-2.3-1.2-3.3-1.8c-31.8-18.4-63.6-36.7-95.3-55.1
	c-58.5-33.8-117-67.6-175.6-101.4C168.2,581.7,167.2,581.5,166.2,581.1L166.2,581.1z"/>
<path class="st1" d="M166.3,581.5c1,0,2,0.3,2.9,0.8c58.5,33.8,117,67.6,175.6,101.4c31.8,18.4,63.6,36.7,95.3,55.1
	c1.1,0.6,2,1.1,3.3,1.8c20.6-11.8,41.1-23.7,62.1-35.8c-1.3-0.8-2.2-1.5-3.2-2c-47.2-27.3-94.4-54.6-141.6-81.8
	c-42.5-24.5-84.9-49.1-127.5-73.5c-2.2-1.2-2.9-2.6-2.8-5c0.2-18.5,0.2-37.1,0.3-55.6c0-1.5,0.2-3,0.3-5
	c92.2,53.3,184.1,106.3,276.1,159.5c20.7-11.9,41.5-23.9,62.8-36.2c-92-53.1-183.4-105.9-275-158.8v-64c1.2,0.6,2.2,1,3,1.4
	c42.7,24.6,85.4,49.3,128.1,74c47.6,27.5,95.2,55,142.8,82.5c1.9,1.1,3.3,1.2,5.1,0.1c18.8-10.9,37.6-21.7,56.5-32.6
	c0.7-0.4,1.3-1,2.1-1.6c-10.7-6.2-21.2-12.3-31.7-18.3c-79.6-46-159.2-92-238.8-138c-5.4-3.2-4.4-1.3-4.4-7.6
	c0-18.5,0.1-37.1,0.2-55.6c0-0.9,0.1-1.8,0.2-3.4c92.2,53.2,184,106.3,276.1,159.4c20.2-11.7,40.4-23.3,61.2-35.2
	c-92-53.2-183.5-106.1-275-158.9v-64c1.4,0.7,2.4,1.1,3.4,1.7c41,23.7,81.8,47.3,122.8,71c49.3,28.4,98.5,56.8,147.8,85.4
	c1.9,1.1,3.3,1.1,5.1,0c19.2-11.1,38.5-22.2,57.8-33.5c0.4-0.3,0.8-0.4,1.7-0.5v3.8c0,26.1-0.1,52.3,0,78.5
	c0.1,30.8,0.4,61.5,0.4,92.3c0.1,30.1,0.1,60.1,0.3,90.2c0.1,16.6,0.3,33.3,0.4,49.9v3.7C654.2,686.2,548.4,745.6,442.8,805
	c-92.2-53.2-184.4-106.5-276.6-159.8C166.3,623.8,166.3,602.8,166.3,581.5L166.3,581.5z"/>
</svg>
